ModelForces
version=1
nRows=4
nColumns=203
inDegrees=no

This file contains the forces exerted on a model during a simulation.

A force is a generalized force, meaning that it can be either a force (N) or a torque (Nm).

Units are S.I. units (second, meters, Newtons, ...)
Angles are in degrees.

endheader
time	glut_med1_r	glut_med2_r	glut_med3_r	glut_min1_r	glut_min2_r	glut_min3_r	semimem_r	semiten_r	bifemlh_r	bifemsh_r	sar_r	add_long_r	add_brev_r	add_mag1_r	add_mag2_r	add_mag3_r	tfl_r	pect_r	grac_r	glut_max1_r	glut_max2_r	glut_max3_r	iliacus_r	psoas_r	quad_fem_r	gem_r	peri_r	rect_fem_r	vas_med_r	vas_int_r	vas_lat_r	med_gas_r	lat_gas_r	soleus_r	tib_post_r	flex_dig_r	flex_hal_r	tib_ant_r	per_brev_r	per_long_r	per_tert_r	ext_dig_r	ext_hal_r	glut_med1_l	glut_med2_l	glut_med3_l	glut_min1_l	glut_min2_l	glut_min3_l	semimem_l	semiten_l	bifemlh_l	bifemsh_l	sar_l	add_long_l	add_brev_l	add_mag1_l	add_mag2_l	add_mag3_l	tfl_l	pect_l	grac_l	glut_max1_l	glut_max2_l	glut_max3_l	iliacus_l	psoas_l	quad_fem_l	gem_l	peri_l	rect_fem_l	vas_med_l	vas_int_l	vas_lat_l	med_gas_l	lat_gas_l	soleus_l	tib_post_l	flex_dig_l	flex_hal_l	tib_ant_l	per_brev_l	per_long_l	per_tert_l	ext_dig_l	ext_hal_l	ercspn_r	ercspn_l	intobl_r	intobl_l	extobl_r	extobl_l	femur_lat_meniscii_l.femur_lat_l.force.X	femur_lat_meniscii_l.femur_lat_l.force.Y	femur_lat_meniscii_l.femur_lat_l.force.Z	femur_lat_meniscii_l.femur_lat_l.torque.X	femur_lat_meniscii_l.femur_lat_l.torque.Y	femur_lat_meniscii_l.femur_lat_l.torque.Z	femur_lat_meniscii_l.meniscus_lat_l.force.X	femur_lat_meniscii_l.meniscus_lat_l.force.Y	femur_lat_meniscii_l.meniscus_lat_l.force.Z	femur_lat_meniscii_l.meniscus_lat_l.torque.X	femur_lat_meniscii_l.meniscus_lat_l.torque.Y	femur_lat_meniscii_l.meniscus_lat_l.torque.Z	femur_med_meniscii_l.femur_med_l.force.X	femur_med_meniscii_l.femur_med_l.force.Y	femur_med_meniscii_l.femur_med_l.force.Z	femur_med_meniscii_l.femur_med_l.torque.X	femur_med_meniscii_l.femur_med_l.torque.Y	femur_med_meniscii_l.femur_med_l.torque.Z	femur_med_meniscii_l.meniscus_med_l.force.X	femur_med_meniscii_l.meniscus_med_l.force.Y	femur_med_meniscii_l.meniscus_med_l.force.Z	femur_med_meniscii_l.meniscus_med_l.torque.X	femur_med_meniscii_l.meniscus_med_l.torque.Y	femur_med_meniscii_l.meniscus_med_l.torque.Z	femur_lat_meniscii_r.femur_lat_r.force.X	femur_lat_meniscii_r.femur_lat_r.force.Y	femur_lat_meniscii_r.femur_lat_r.force.Z	femur_lat_meniscii_r.femur_lat_r.torque.X	femur_lat_meniscii_r.femur_lat_r.torque.Y	femur_lat_meniscii_r.femur_lat_r.torque.Z	femur_lat_meniscii_r.meniscus_lat_r.force.X	femur_lat_meniscii_r.meniscus_lat_r.force.Y	femur_lat_meniscii_r.meniscus_lat_r.force.Z	femur_lat_meniscii_r.meniscus_lat_r.torque.X	femur_lat_meniscii_r.meniscus_lat_r.torque.Y	femur_lat_meniscii_r.meniscus_lat_r.torque.Z	femur_med_meniscii_r.femur_med_r.force.X	femur_med_meniscii_r.femur_med_r.force.Y	femur_med_meniscii_r.femur_med_r.force.Z	femur_med_meniscii_r.femur_med_r.torque.X	femur_med_meniscii_r.femur_med_r.torque.Y	femur_med_meniscii_r.femur_med_r.torque.Z	femur_med_meniscii_r.meniscus_med_r.force.X	femur_med_meniscii_r.meniscus_med_r.force.Y	femur_med_meniscii_r.meniscus_med_r.force.Z	femur_med_meniscii_r.meniscus_med_r.torque.X	femur_med_meniscii_r.meniscus_med_r.torque.Y	femur_med_meniscii_r.meniscus_med_r.torque.Z	femur_med_tibia_l.tibia_upper_l.force.X	femur_med_tibia_l.tibia_upper_l.force.Y	femur_med_tibia_l.tibia_upper_l.force.Z	femur_med_tibia_l.tibia_upper_l.torque.X	femur_med_tibia_l.tibia_upper_l.torque.Y	femur_med_tibia_l.tibia_upper_l.torque.Z	femur_med_tibia_l.femur_med_l.force.X	femur_med_tibia_l.femur_med_l.force.Y	femur_med_tibia_l.femur_med_l.force.Z	femur_med_tibia_l.femur_med_l.torque.X	femur_med_tibia_l.femur_med_l.torque.Y	femur_med_tibia_l.femur_med_l.torque.Z	femur_lat_tibia_l.tibia_upper_l.force.X	femur_lat_tibia_l.tibia_upper_l.force.Y	femur_lat_tibia_l.tibia_upper_l.force.Z	femur_lat_tibia_l.tibia_upper_l.torque.X	femur_lat_tibia_l.tibia_upper_l.torque.Y	femur_lat_tibia_l.tibia_upper_l.torque.Z	femur_lat_tibia_l.femur_lat_l.force.X	femur_lat_tibia_l.femur_lat_l.force.Y	femur_lat_tibia_l.femur_lat_l.force.Z	femur_lat_tibia_l.femur_lat_l.torque.X	femur_lat_tibia_l.femur_lat_l.torque.Y	femur_lat_tibia_l.femur_lat_l.torque.Z	femur_med_tibia_r.tibia_upper_r.force.X	femur_med_tibia_r.tibia_upper_r.force.Y	femur_med_tibia_r.tibia_upper_r.force.Z	femur_med_tibia_r.tibia_upper_r.torque.X	femur_med_tibia_r.tibia_upper_r.torque.Y	femur_med_tibia_r.tibia_upper_r.torque.Z	femur_med_tibia_r.femur_med_r.force.X	femur_med_tibia_r.femur_med_r.force.Y	femur_med_tibia_r.femur_med_r.force.Z	femur_med_tibia_r.femur_med_r.torque.X	femur_med_tibia_r.femur_med_r.torque.Y	femur_med_tibia_r.femur_med_r.torque.Z	femur_lat_tibia_r.tibia_upper_r.force.X	femur_lat_tibia_r.tibia_upper_r.force.Y	femur_lat_tibia_r.tibia_upper_r.force.Z	femur_lat_tibia_r.tibia_upper_r.torque.X	femur_lat_tibia_r.tibia_upper_r.torque.Y	femur_lat_tibia_r.tibia_upper_r.torque.Z	femur_lat_tibia_r.femur_lat_r.force.X	femur_lat_tibia_r.femur_lat_r.force.Y	femur_lat_tibia_r.femur_lat_r.force.Z	femur_lat_tibia_r.femur_lat_r.torque.X	femur_lat_tibia_r.femur_lat_r.torque.Y	femur_lat_tibia_r.femur_lat_r.torque.Z	aACL_R	pACL_R	aPCL_R	pPCL_R	aMCL_R	mMCL_R	pMCL_R	aLCL_R	mLCL_R	pLCL_R	aPCL_L	pPCL_L	aMCL_L	aLCL_L
      0.06980451	      0.00000000	     14.27469439	     14.03997768	      6.86753584	      7.80047075	      5.12259463	      0.00000000	    240.86365171	    323.35745706	    433.96945914	    139.05901464	     15.22570419	     10.60417197	      0.00000000	      0.00000000	     11.00902462	      4.57459891	      0.00000000	    122.64659366	      8.45713259	     14.75637125	     11.31080373	     40.38438117	     33.13870511	      0.00000000	      5.78613283	      0.00000000	     48.14950934	      0.00000000	      0.00000000	      0.00000000	     67.21963992	     39.22455243	      0.00000000	     36.22051837	      7.43908082	      6.19199643	      0.00000000	      6.05465440	     24.78965063	      4.49559035	     10.19378324	      3.28854388	      0.00000000	     14.27469439	     14.03997768	      6.86753584	      7.80047075	      5.12259463	      0.00000000	     11.60361324	      3.63455759	     19.03271200	      3.90835577	     15.22570419	     10.60417197	      0.00000000	      0.00000000	     11.00902462	      8.28399071	      0.00000000	      4.07321283	      8.45713259	     14.75637125	     11.31080373	     40.38438117	     33.13870511	      0.00000000	      5.78613283	      0.00000000	     27.97408148	      0.00000000	      0.00000000	      0.00000000	      0.00000000	      0.00000000	     26.92514862	     59.82927771	     10.51944233	      8.84044655	      3.10679375	     10.02159599	     21.90352568	      5.00258559	      6.34702099	      1.86359798	     64.71964843	     64.71964843	     24.98262557	     24.98262557	     41.48555616	     41.48555616	      2.76307435	     50.99597937	     -9.56042239	      5.21997485	     -0.02578839	      1.48581788	     -2.76307435	    -50.99597937	      9.56042239	     -1.74637766	      0.02558040	     -0.48301696	     -3.31599387	     20.97615968	     -3.40468921	      0.94473225	     -0.02138609	     -1.00501789	      3.31599387	    -20.97615968	      3.40468921	      0.28075727	      0.00368718	     -0.29758878	     68.47027502	    285.06980159	     39.62754809	    -23.38921158	      1.72778171	     28.55312171	    -68.47027502	   -285.06980159	    -39.62754809	      9.19986899	     -2.23293258	     -0.40221401	     19.74823819	    154.53194335	     15.93264778	     -3.39291781	     -0.29428645	      7.74811443	    -19.74823819	   -154.53194335	    -15.93264778	     -2.17312447	      0.11826562	      0.85813685	      0.00000000	      0.00000000	      0.00000000	      0.00000000	      0.00000000	      0.00000000	      0.00000000	      0.00000000	      0.00000000	      0.00000000	      0.00000000	      0.00000000	      0.00000000	      0.00000000	      0.00000000	      0.00000000	      0.00000000	      0.00000000	      0.00000000	      0.00000000	      0.00000000	      0.00000000	      0.00000000	      0.00000000	     39.62845789	   -578.49206413	     40.22604756	    -11.03125833	     -0.57354315	      3.79892859	    -39.62845789	    578.49206413	    -40.22604756	     28.45536067	      0.98234555	    -15.08518179	      5.10523722	   -381.33198666	    -98.84393307	     13.62511097	     -0.23084483	      1.57268840	     -5.10523722	    381.33198666	     98.84393307	    -50.16547128	     -0.41700350	     -0.96063181	     52.04256543	     40.20396770	      0.00000000	      0.00000000	      0.00000000	     -8.96606069	    -23.28027762	      0.00000000	      0.00000000	      0.00000000	      0.00000000	      0.00000000	      0.00000001	      0.00000000
      0.07100713	      0.00000000	     14.26600250	     14.30377813	      6.79947016	      7.72560042	      5.53045322	      0.00000000	    239.65818242	    321.23354980	    433.52146536	    138.65051976	     15.06852322	     10.49992565	      0.00000000	      0.00000000	     10.94007483	      4.59968300	      0.00000000	    122.25532780	      8.62100950	     14.63988726	     11.19921308	     40.08960480	     32.80392203	      0.00000000	      5.73704493	      0.00000000	     46.35737706	      0.00000000	      0.00000000	      0.00000000	     66.10793655	     38.33160607	      0.00000000	     35.79660373	      8.23117715	      6.81229936	      0.00000000	      5.06551946	     22.16122995	      6.62393458	     10.92255406	      3.60365700	      0.00000000	     14.26600250	     14.30377813	      6.79947016	      7.72560042	      5.53045322	      0.00000000	     11.48040777	      5.05369594	     18.84036719	      3.86977422	     15.06852322	     10.49992565	      0.00000000	      0.00000000	     10.94007483	      8.24412842	      0.00000000	      4.03240439	      8.62100950	     14.63988726	     11.19921308	     40.08960480	     32.80392203	      0.00000000	      5.73704493	      0.00000000	     27.91987819	      0.00000000	      0.00000000	      0.00000000	      0.00000000	      0.00000000	     29.73719933	     59.84381290	     10.67387768	      9.06312447	      5.16634552	     10.07078470	     21.98481030	      4.96352594	      6.42605720	      1.89554004	     64.07693130	     64.07693130	     24.72431452	     24.72431452	     41.23995077	     41.23995077	      2.76307435	     50.99597937	     -9.56042239	      5.21997485	     -0.02578839	      1.48581788	     -2.76307435	    -50.99597937	      9.56042239	     -1.74637766	      0.02558040	     -0.48301696	     -3.31599387	     20.97615968	     -3.40468921	      0.94473225	     -0.02138609	     -1.00501789	      3.31599387	    -20.97615968	      3.40468921	      0.28075727	      0.00368718	     -0.29758878	    111.16626247	    277.40768863	     -0.52314299	     -6.21619816	      2.70747393	     46.58715832	   -111.16626247	   -277.40768863	      0.52314299	      7.37402638	     -3.08751771	     -2.07854414	     39.68243561	    149.83601948	     -5.67505842	      5.58099536	     -0.79610962	     16.12203202	    -39.68243561	   -149.83601948	      5.67505842	     -2.88975312	      0.69844902	      0.11779587	      0.00000000	      0.00000000	      0.00000000	      0.00000000	      0.00000000	      0.00000000	      0.00000000	      0.00000000	      0.00000000	      0.00000000	      0.00000000	      0.00000000	      0.00000000	      0.00000000	      0.00000000	      0.00000000	      0.00000000	      0.00000000	      0.00000000	      0.00000000	      0.00000000	      0.00000000	      0.00000000	      0.00000000	    -19.43497014	   -557.16951422	    101.04650568	    -13.28414756	      0.64791966	      1.45100033	     19.43497014	    557.16951422	   -101.04650568	     53.91803173	     -0.01533925	      9.85243700	    -44.29617688	   -373.61074516	    -54.00214894	     11.57946293	     -1.32507347	     -0.35779317	     44.29617688	    373.61074516	     54.00214894	    -30.97826044	      0.79827869	     19.91458446	     64.37476363	     52.44657097	      0.00000000	      0.00000000	      0.00000000	    -10.77902079	    -25.87080514	      0.00000000	      0.00000000	      0.00000000	      0.00000000	      0.00000000	      0.00000001	      0.00000000
      0.07220975	      0.00000000	     14.23856300	     14.47455414	      6.73254876	      7.65188209	      5.86613373	      0.00000000	    239.14076979	    319.21677431	    431.67975530	    139.19120367	     14.91402151	     10.39743139	      0.00000000	      0.00000000	     10.86871624	      4.62914087	      0.00000000	    122.32999042	      8.72429408	     14.52033808	     11.08872978	     39.79997632	     32.47499967	      0.00000000	      5.68882547	      0.00000000	     47.42394512	      0.00000000	      0.00000000	      0.00000000	     64.07829798	     36.91778058	      0.00000000	     35.17289510	      9.02224766	      7.41241886	      0.00000000	      4.29713124	     19.76876737	      8.16766232	     11.75201668	      3.95042543	      0.00000000	     14.23856300	     14.47455414	      6.73254876	      7.65188209	      5.86613373	      0.00000000	     11.35932115	      6.26303803	     18.65128555	      3.83184211	     14.91402151	     10.39743139	      0.00000000	      0.00000000	     10.86871624	      8.20333448	      0.00000000	      3.99228614	      8.72429408	     14.52033808	     11.08872978	     39.79997632	     32.47499967	      0.00000000	      5.68882547	      0.00000000	     27.85664926	      0.00000000	      0.00000000	      0.00000000	      0.00000000	      0.00000000	     32.30765472	     59.84839987	     10.80182113	      9.26293060	      6.85375208	     10.11108752	     22.05704102	      4.92400964	      6.51676546	      1.93194756	     63.44505569	     63.44505569	     24.46998959	     24.46998959	     40.99868394	     40.99868394	      2.76307435	     50.99597937	     -9.56042239	      5.21997485	     -0.02578839	      1.48581788	     -2.76307435	    -50.99597937	      9.56042239	     -1.74637766	      0.02558040	     -0.48301696	     -3.31599387	     20.97615968	     -3.40468921	      0.94473225	     -0.02138609	     -1.00501789	      3.31599387	    -20.97615968	      3.40468921	      0.28075727	      0.00368718	     -0.29758878	     67.27515932	    288.11364675	     39.65439856	    -23.45306909	      1.68517146	     28.02070716	    -67.27515932	   -288.11364675	    -39.65439856	      9.25422646	     -2.20013684	     -0.19030259	     25.93967629	    158.17871968	     14.51288449	     -2.73296305	     -0.42754116	     10.29695351	    -25.93967629	   -158.17871968	    -14.51288449	     -2.28184774	      0.23452949	      0.76996485	      0.00000000	      0.00000000	      0.00000000	      0.00000000	      0.00000000	      0.00000000	      0.00000000	      0.00000000	      0.00000000	      0.00000000	      0.00000000	      0.00000000	      0.00000000	      0.00000000	      0.00000000	      0.00000000	      0.00000000	      0.00000000	      0.00000000	      0.00000000	      0.00000000	      0.00000000	      0.00000000	      0.00000000	     23.57373519	   -582.97827153	     40.43411452	    -11.13033593	     -0.27424516	      3.59019282	    -23.57373519	    582.97827153	    -40.43411452	     28.63002893	      0.64416433	     -8.45930614	      4.79920110	   -355.61082814	    -91.55035991	     12.66761693	     -0.26657624	      1.69248859	     -4.79920110	    355.61082814	     91.55035991	    -46.51544059	     -0.37049653	     -0.99224597	     55.50838851	     41.84570040	      0.00000000	      0.00000000	      0.00000000	     -7.73491801	    -23.88713954	      0.00000000	      0.00000000	      0.00000000	      0.00000000	      0.00000000	      0.00000001	      0.00000000
      0.07341237	      0.00000000	     14.19506469	     14.57417077	      6.66675211	      7.57932137	      6.14201914	      0.00000000	    238.20152161	    317.02180774	    431.29843975	    138.93497010	     14.76214948	     10.29665758	      0.00000000	      0.00000000	     10.79521823	      4.65505762	      0.00000000	    122.06383838	      8.78218550	     14.39848204	     10.97943956	     39.51539725	     32.15181989	      0.00000000	      5.64145681	      0.00000000	     46.06640046	      0.00000000	      0.00000000	      0.00000000	     61.26232787	     35.11216055	      0.00000000	     34.36899333	      9.80322198	      7.98612461	      0.00000000	      3.67723684	     17.56343765	      0.07273489	     12.72155106	      4.35518121	      0.00000000	     14.19506469	     14.57417077	      6.66675211	      7.57932137	      6.14201914	      0.00000000	     11.24031179	      7.31192279	     18.46540788	      3.79454770	     14.76214948	     10.29665758	      0.00000000	      0.00000000	     10.79521823	      8.16168508	      0.00000000	      3.95284562	      8.78218550	     14.39848204	     10.97943956	     39.51539725	     32.15181989	      0.00000000	      5.64145681	      0.00000000	     27.78466952	      0.00000000	      0.00000000	      0.00000000	      0.00000000	      0.00000000	     34.66373865	     59.84587400	     10.90233166	      9.43856704	      8.27614202	     10.14311047	     22.12062019	      4.88415802	      6.61871115	      1.97262247	     62.82382559	     62.82382559	     24.21962995	     24.21962995	     40.76167114	     40.76167114	      2.76307435	     50.99597937	     -9.56042239	      5.21997485	     -0.02578839	      1.48581788	     -2.76307435	    -50.99597937	      9.56042239	     -1.74637766	      0.02558040	     -0.48301696	     -3.31599387	     20.97615968	     -3.40468921	      0.94473225	     -0.02138609	     -1.00501789	      3.31599387	    -20.97615968	      3.40468921	      0.28075727	      0.00368718	     -0.29758878	     99.47174716	    282.62000557	      4.35446093	     -8.39171617	      2.41582799	     41.62147188	    -99.47174716	   -282.62000557	     -4.35446093	      7.68985544	     -2.78789505	     -1.43994073	     40.05228890	    151.68805995	     -4.22419771	      4.98035098	     -0.79242007	     16.22263006	    -40.05228890	   -151.68805995	      4.22419771	     -2.84336200	      0.68645592	      0.23441309	      0.00000000	      0.00000000	      0.00000000	      0.00000000	      0.00000000	      0.00000000	      0.00000000	      0.00000000	      0.00000000	      0.00000000	      0.00000000	      0.00000000	      0.00000000	      0.00000000	      0.00000000	      0.00000000	      0.00000000	      0.00000000	      0.00000000	      0.00000000	      0.00000000	      0.00000000	      0.00000000	      0.00000000	    -20.46878206	   -564.10698258	     94.30684157	    -13.11467643	      0.71761836	      1.87749382	     20.46878206	    564.10698258	    -94.30684157	     51.17316711	     -0.09581155	     10.10229998	    -29.56175254	   -346.82522744	    -54.57884127	     10.92059976	     -0.98858565	      0.36132454	     29.56175254	    346.82522744	     54.57884127	    -30.64424754	      0.48713717	     13.50816337	     65.74317049	     51.88713472	      0.00000000	      0.00000000	      0.00000000	     -8.74239141	    -25.71796013	      0.00000000	      0.00000000	      0.00000000	      0.00000000	      0.00000000	      0.00000001	      0.00000000
